<svg xmlns="http://www.w3.org/2000/svg" xmlns:xlink="http://www.w3.org/1999/xlink" viewBox="0 0 2829.52 1441.05"><defs><clipPath id="clip-path" transform="translate(0 -558.95)"><rect id="bg" width="2829.52" height="2000" style="fill:none"/></clipPath><linearGradient id="linear-gradient" x1="500.7" y1="994.74" x2="681.38" y2="994.74" gradientUnits="userSpaceOnUse"><stop offset="0" stop-color="#9d491a"/><stop offset="0.47" stop-color="#ca6b2a"/><stop offset="1" stop-color="#d78237"/></linearGradient><linearGradient id="linear-gradient-2" x1="510.88" y1="656.38" x2="543.76" y2="656.38" xlink:href="#linear-gradient"/><linearGradient id="linear-gradient-3" x1="665.59" y1="908.23" x2="709.2" y2="908.23" xlink:href="#linear-gradient"/><linearGradient id="linear-gradient-4" x1="479.61" y1="817.83" x2="700.27" y2="817.83" xlink:href="#linear-gradient"/><linearGradient id="linear-gradient-5" x1="571.47" y1="923.08" x2="700.27" y2="923.08" xlink:href="#linear-gradient"/><linearGradient id="linear-gradient-6" x1="427.64" y1="1035.66" x2="732.37" y2="1035.66" xlink:href="#linear-gradient"/><linearGradient id="linear-gradient-7" x1="376.86" y1="1153.09" x2="783.15" y2="1153.09" xlink:href="#linear-gradient"/><linearGradient id="linear-gradient-8" x1="230.59" y1="1206.2" x2="929.42" y2="1206.2" xlink:href="#linear-gradient"/><linearGradient id="linear-gradient-9" x1="68.07" y1="1316.98" x2="1091.94" y2="1316.98" xlink:href="#linear-gradient"/></defs><g id="Layer_2" data-name="Layer 2"><g id="Layer_1-2" data-name="Layer 1"><g style="clip-path:url(#clip-path)"><g id="Statue_Of_Liberty" data-name="Statue Of Liberty"><path d="M513.05,958.36c4.89-4.16,7.81-2.64,9.17-1.26,7.53-2.94,16.1-6.54,17.18-8.07,2-2.79,41.34-36.4,46.59-38.95s34.18-34.21,40.68-42.66-5.25,50.09-5.25,50.09l7.21,99.27v63.78l-28.54,18.53,11.81-65.77-2-50.36-7.88,15.36-3.94,39.86-11.81,68.12-16.73,13.42,11.93-45.1,7.76-67.48-8.86,7s-39.66,67.33-48.23,71.77L560.65,1068l21.73-47.11-6.89,53.18-26.58,87.11-29.53,21.48-13.78,46.79,19.69-39.53-4.92,28L532,1185.36,545,1175l-13.7,68.35,10.75,6.05,41.35,1.91L544,1256l73.49,5.61,58.4,1.61-127.3,7.64L680,1276.66v-4.08l4.78-8.88-8.82-5.91.37-17-11.4-4.44c-9.56-10-6.25-53.63-6.25-53.63,1.1-17.38-.37-39.2-.37-39.2-2.57-18.13-1.1-28.86-1.1-28.86,3.67-7.39,3.31-25.15,3.31-25.15l4.78-3.7c-1.47-7.39-3-44.75-3-44.75-.61-15.46-4.65-43.13-6-51.81-.18-1.24-.32-2.1-.37-2.47-2.56-2.26-4-3.9-2.74-3.8,3.94.33-2.88-50.92-2.88-50.92l13.71-18.23-10-24.56c-3.12,0-6.25-3.57-6.25-3.57-1-3.7-6.87-6.9-6.87-6.9a11.88,11.88,0,0,1-5.14-5.43,116.22,116.22,0,0,0-3-11.59c1.48-4.93-3.43-17-3.43-17,1.47-7.65-6.61-12.33-6.61-12.33-1.71-5.92-10.55-10.85-10.55-10.85-5.63-4.93-4.16-10.1-4.16-10.1a11.5,11.5,0,0,0-1-7.41A21.45,21.45,0,0,1,605.7,793c4.41-2.7.73-10.85.73-10.85-4.16-11.33-1.23-13.56-1.23-13.56,5.89.74,3.2-7.64,3.2-7.64-2.46-8.14,1.22-10.12,1.22-10.12l13.24-1.47-12.51-1.73c.5-1.23.74-6.41.74-6.41l11.77-5.42-12.75.74c-1.22-1.24-4.41-5.19-4.41-5.19l4.41-4.92-8.82,3.45-9.56-3.21,1.47-13.8-6.62,14c-3.92-.49-14.71,2-14.71,2l-10.29-9.12,4.9,12.32a22.71,22.71,0,0,0-5.21,4.85l7,1.65a112.51,112.51,0,0,1,34.12,0l3.28,6.7L588,753.32s-3.93,16.75,0,20.52c0,0-8.53,4.68.66,8.82,0,0,13.78,2.16,1.31,11.35s-21-29.71-21-29.71,3.94-10.12,9.85-14.15S562,744.7,556.94,761.81s-19.51,8.08-19.51,8.08-6,18-31.23,29.9c0,0,19.42-.59,32.54-9.42,0,0-15.75,21.56-28.87,26,0,0,24.42-5.07,33-12.1a29.67,29.67,0,0,0,8.69-11l1-3a14,14,0,0,1-1,3L541.37,824.1s-12.47,24.58-25.6,33.66c0,0,13.78-6.14,21.66-9.68s-5.91,16.39-5.91,16.39,18.64-18.41,24.41-27.7,14.31-21.84,14.31-21.84,2,4.48,8.53,9.17,14.43,10.28,14.43,10.28l12.47,4-25.59,23.11-18.37,26.65c-6.56,9.52,26.24-19.62,26.24-19.62l26.91-24s5.9,13.72,0,20.29S582.7,896,579.42,901.41s-46.58,32.27-46.58,32.27-17.14,13-28.73,16.71C503.27,960.13,513.05,958.36,513.05,958.36Zm85.26,285-.39-.38-20.58-20-11.7-59.13,13.26,36.72,4.47-39.37,10.23-22.82v55.8l7.06,22.8,1.4,4.54ZM651.7,1092.6l4.87,71.24-12.19,75.23,3-50-8.65-74.81-13-4.76Z" transform="translate(0 -558.95)" style="fill:#ffe2bb"/><path d="M526.27,576.69c-3.81,7.1.59,25.69.59,25.69s5.8,15.43-9.86,17.9c0,0,1,5.25,8,7.72,0,0-13.75,5-1.31,7.78,0,0-17.73,9.51,4.26,10.71,0,0-3,6.44,0,11.69s0,17.06,0,17.06-5.57,6.57-2.29,11.81-2,63.65,3.6,66.27,10.3-6.22,10.3-6.22l-.49-6.67.49,0V737l-1.23,0c.5-11.84-4.9-47.84-4.9-47.84-2.69-23.68,4.42-34,4.42-34,3.43-9.86-1.72-16.53-1.72-16.53-3.93-4.18-4.17-8.12-4.17-8.12-.73-2.23.74-10.37.74-10.37,0-3.69,3.92-6.91,3.92-6.91h8.09c3.92-.74,2-5.17,2-5.17-4.41-3.21-1.72-10.85-1.72-10.85a12.17,12.17,0,0,0-8.26,2c-1.15-3.21-5.95-3.94-5.95-3.94v-7.4c0-3.7,3.85-9.62,3.85-9.62,4.83-4.19-.17-9.12-.17-9.12C535.6,561.41,530,559,530,559c0,3.45-4.66,5.18-4.66,5.18a4.22,4.22,0,0,1-.27,1.25c-1.34,3.6-7.32,4.42-7.32,4.42.64,3.43-2.6,4.81-3.47,5.11C516.1,574.31,529.83,570.06,526.27,576.69Z" transform="translate(0 -558.95)" style="fill:#ffe2bb"/><path d="M700.49,905.39s7.38,16.9-4.43,13c0,0-8.1-2.78-10-8.28,0,0-1.36,9.26,8,16.15,0,0-7.87,4.43-18.21-6.4,0,0-.23,9,10.22,16.8,0,0-8.74,2.39-14.65-4,0,0,4.33,8.44,10.18,13.92a11,11,0,0,1,6.67-5.13c3.67-1.74,10.29-9.92,10.29-9.92,2.7-4.49,9.07-9.32,9.07-9.32,3.19-2,1-6.41,1-6.41L705,909.35l6.38-9.37-1.23-4.18,2.45-2.47-41.17-23.42-1.72,3.19-.72.11,22.68,18.08Z" transform="translate(0 -558.95)" style="fill:#ffe2bb"/><polygon points="684.77 769.34 703.63 769.34 703.63 725.93 592.79 733.5 587.21 748.29 614.41 759.66 602.06 767.39 684.69 767.38 682.55 769.34 671.29 779.68 642.74 782.31 642.74 887.98 609.28 887.98 609.28 785.38 597.4 786.48 594.68 786.87 594.68 887.98 561.22 887.98 561.22 791.65 547.27 793.64 547.27 887.98 513.81 887.98 513.81 798.43 505.68 799.59 482.97 909.73 684.77 909.73 684.77 769.34" style="fill:#ffe2bb"/><polygon points="622.73 931.91 659.68 936.43 703.63 936.43 703.63 909.73 684.77 909.73 574.83 918.57 584.91 921.38 622.73 931.91" style="fill:#ffe2bb"/><path d="M500.06,806.53a14,14,0,0,1,2,11.1c-5.14,11.83,7.17,17.58,7.17,17.58,6.62,11.64,0,25.52,0,25.52-7.72,7.76,2.2,19.41,2.2,19.41,7.73,8.88,8.83,22.75,8.83,22.75-12.13,20-15.44,43.83-15.44,43.83a19.18,19.18,0,0,0-.67,3.67c11.59-3.75,28.73-16.71,28.73-16.71s43.3-26.81,46.58-32.27,29.53-30,35.44-36.54,0-20.29,0-20.29l-26.91,24s-32.8,29.14-26.24,19.62l18.37-26.65,25.59-23.11-12.47-4s-7.87-5.59-14.43-10.28-8.53-9.17-8.53-9.17-8.53,12.55-14.31,21.84-24.41,27.7-24.41,27.7,13.78-19.93,5.91-16.39-21.66,9.68-21.66,9.68c13.13-9.08,25.6-33.66,25.6-33.66l10.17-30.77a29.67,29.67,0,0,1-8.69,11c-8.56,7-33,12.1-33,12.1,13.12-4.49,28.87-26,28.87-26-13.12,8.83-32.54,9.42-32.54,9.42,25.19-11.95,31.23-29.9,31.23-29.9s14.43,9,19.51-8.08,27.73-15.7,21.83-11.66-9.85,14.15-9.85,14.15,8.53,38.9,21,29.71-1.31-11.35-1.31-11.35c-9.19-4.14-.66-8.82-.66-8.82-3.93-3.77,0-20.52,0-20.52l17.72-8.07-3.28-6.7a112.51,112.51,0,0,0-34.12,0l-7-1.65-.43.58L539.52,737v3.46l15,.95-2.69,5.68H539.52s-4.72,8.85-10.3,6.22-.32-61-3.6-66.27,2.29-11.81,2.29-11.81,3-11.81,0-17.06,0-11.69,0-11.69c-22-1.2-4.26-10.71-4.26-10.71C511.21,633,525,628,525,628c-7-2.47-8-7.72-8-7.72,15.66-2.47,9.86-17.9,9.86-17.9s-4.4-18.59-.59-25.69c3.56-6.63-10.17-2.38-12-1.78L514,575c-2.94,6.41,2.21,11.84,2.21,11.84l.24,10.59c-5.39-.25-6.37,2-6.37,2-2.69-3-7.6-1.74-7.6-1.74,2.45,6.41-.24,10.85-.24,10.85-2.21,3.71,2,5.18,2,5.18h7.11c2.94,1.48,2.45,4.93,2.45,4.93-6.61,3.21-1.71,11.1-1.71,11.1-3.92,6.66,1,8.87,1,8.87-2.45,2.22-.49,7.16-.49,7.16-3.43,1.48-1.47,8.87.25,11.59s2.45,7.89,2.45,7.89c3.31,12.57-.74,34-.74,34-3.31,17.39.25,53.26.25,54.25s-8.1,10.11-8.1,10.11C492,782.36,500.06,806.53,500.06,806.53Zm46.69-56s3.06-.49,3.8,5.43c0,0,.73,7.4,2.21,9.12,0,0,.73,3.21-2,3.45,0,0-2.58,2.18-3.72-3.32l1.34.72-1.67-11.45-2.59-2.45A2.23,2.23,0,0,1,546.75,750.55Z" transform="translate(0 -558.95)" style="fill:#ffe2bb"/><path d="M653.24,983c-1.29-.1.18,1.54,2.74,3.8,0-.14,0-.22,0-.22L660.36,975l4.17.24,5.21-8.73,11.69-19.61c.07-.11.14-.2.2-.3-5.85-5.48-10.18-13.92-10.18-13.92,5.91,6.39,14.65,4,14.65,4-10.45-7.81-10.22-16.8-10.22-16.8,10.34,10.83,18.21,6.4,18.21,6.4-9.35-6.89-8-16.15-8-16.15,1.86,5.5,10,8.28,10,8.28,11.81,3.93,4.43-13,4.43-13l-8.86-14.1L669,873.21l-4.18.64-2.87,4.6-6.69,10.69a4,4,0,0,1-1,.13l-.13,0,10,24.56L650.36,932S657.18,983.29,653.24,983Z" transform="translate(0 -558.95)" style="fill:#ffe2bb"/><path d="M598.31,1248.92c3.07,13.43,19.17-34.3,19.17-34.3L631.26,1137l-20.59,25s-6.26,29.81-10,54.91l-7.06-22.8v-55.8l-10.23,22.82-4.47,39.37-13.26-36.72,11.7,59.13,20.58,20A27,27,0,0,0,598.31,1248.92Z" transform="translate(0 -558.95)" style="fill:#ffe2bb"/><polygon points="656.57 604.89 651.7 533.65 625.68 550.5 638.69 555.27 647.34 630.07 644.38 680.12 656.57 604.89" style="fill:#ffe2bb"/><path d="M454.17,1468.68v26.7H659.68l-36.95-4.52-37.81-10.53-10.09-2.8,109.94-8.85H483l22.71-110.14,8.13-1.16v89.56h33.46V1352.6l13.94-2v96.34h33.47V1345.82l2.72-.39,11.88-1.09v102.6h33.46V1341.26l28.55-2.63,11.26-10.34,2.14-2H602.06l12.35-7.72-27.2-11.37,5.58-14.8,54.78-3.74,8.08.19c8.11.22,16.22.44,24.31.71v-3.11l23.67-1.62v-1.79H680v-6.43l-131.38-5.85,127.3-7.64-58.4-1.61L544,1256l39.38-4.65L542,1249.39l-10.75-6.05L545,1175,532,1185.36l-11.67,32.52,4.92-28-19.69,39.53,13.78-46.79,29.53-21.48,26.58-87.11,6.89-53.18L560.65,1068l-28.47,17.88c8.57-4.44,48.23-71.77,48.23-71.77l8.86-7-7.76,67.48-11.93,45.1,16.73-13.42,11.81-68.12,3.94-39.86L609.94,983l2,50.36-11.81,65.77,28.54-18.53v-63.78l-7.21-99.27s11.75-58.54,5.25-50.09S591.23,907.53,586,910.08,541.37,946.24,539.4,949c-1.08,1.53-9.65,5.13-17.18,8.07a5.43,5.43,0,0,1,.94,1.26C525.55,975,518,991.1,518,991.1c-7.17,12.21,0,21.08,0,21.08-3.87,12.21,2.2,28.86,2.2,28.86,6.62,20,0,46.59,0,46.59-6.61,5.56-2.75,9.44-2.75,9.44-.56,8.32-10.48,27.19-10.48,27.19-9.93,11.64-10.48,53.81-10.48,53.81.55,23.85-22.61,52.71-22.61,52.71v9.43l-8.27,3.88v16.09l-4.68,2.37,13.79,20.54H454.17v45.2h17.4v140.39Z" transform="translate(0 -558.95)" style="fill:#ffe2bb"/><polygon points="538.82 1019.39 495.48 1098.3 549.65 1119.55 631.26 1134.88 735.73 1134.88 735.73 936.43 651.24 936.43 587.86 952.62 538.82 1019.39" style="fill:#ffe2bb"/><polygon points="587.86 1159 530.69 1165.07 631.26 1171.3 786.51 1171.3 786.51 1134.88 656.57 1141.8 587.86 1159" style="fill:#ffe2bb"/><polygon points="523.92 1213.63 454.9 1229.82 418.28 1241.11 932.78 1241.11 932.78 1171.3 597.98 1190.37 523.92 1213.63" style="fill:#ffe2bb"/><polygon points="431 1345.15 616.02 1359.32 523.92 1378.54 1095.3 1392.85 1095.3 1241.11 504.06 1307.72 431 1345.15" style="fill:#ffe2bb"/><polygon points="2054.95 1437.93 2054.95 1392.85 601.84 1424.72 342.09 1437.93 2054.95 1437.93" style="fill:#ffe2bb"/><polygon points="631.26 1134.88 549.65 1119.55 495.48 1098.3 538.82 1019.39 587.86 952.62 651.24 936.43 431 936.43 431 1134.88 631.26 1134.88" style="fill:#ffe2bb"/><polygon points="431 1134.88 380.22 1134.88 380.22 1171.3 631.26 1171.3 530.69 1165.07 587.86 1159 656.57 1141.8 786.51 1134.88 735.73 1134.88 631.26 1134.88 431 1134.88" style="fill:#ffe2bb"/><polygon points="380.22 1171.3 233.95 1171.3 233.95 1241.11 418.28 1241.11 454.9 1229.82 523.92 1213.63 597.98 1190.37 932.78 1171.3 786.51 1171.3 631.26 1171.3 380.22 1171.3" style="fill:#ffe2bb"/><polygon points="233.95 1241.11 71.43 1241.11 71.43 1392.85 1095.3 1392.85 523.92 1378.54 616.02 1359.32 431 1345.15 504.06 1307.72 1095.3 1241.11 932.78 1241.11 418.28 1241.11 233.95 1241.11" style="fill:#ffe2bb"/><polygon points="1161.87 1429.93 1414.76 1419.63 2829.52 1394.78 0 1394.78 0 1429.93 1161.87 1429.93" style="fill:#ffe2bb"/><path d="M509.69,958.36c4.89-4.16,7.81-2.64,9.17-1.26,7.53-2.94,16.1-6.54,17.18-8.07,2-2.79,41.34-36.4,46.59-38.95s34.18-34.21,40.68-42.66-5.25,50.09-5.25,50.09l7.21,99.27v63.78l-28.54,18.53,11.81-65.77-2-50.36-7.88,15.36-3.94,39.86L583,1106.3l-16.73,13.42,11.93-45.1,7.76-67.48-8.86,7s-39.66,67.33-48.23,71.77L557.29,1068,579,1020.9l-6.89,53.18-26.58,87.11L516,1182.67l-13.78,46.79,19.69-39.53-4.92,28,11.67-32.52L541.61,1175l-13.7,68.35,10.75,6.05L580,1251.3,540.63,1256l73.49,5.61,58.4,1.61-127.3,7.64,131.38,5.85v-4.08l4.78-8.88-8.82-5.91.37-17-11.4-4.44c-9.56-10-6.25-53.63-6.25-53.63,1.1-17.38-.37-39.2-.37-39.2-2.57-18.13-1.1-28.86-1.1-28.86,3.67-7.39,3.31-25.15,3.31-25.15l4.78-3.7C660.43,1078.4,659,1041,659,1041c-.61-15.46-4.65-43.13-6-51.81-.18-1.24-.32-2.1-.37-2.47-2.56-2.26-4-3.9-2.74-3.8C653.82,983.29,647,932,647,932l13.71-18.23-10-24.56c-3.12,0-6.25-3.57-6.25-3.57-1-3.7-6.87-6.9-6.87-6.9a11.88,11.88,0,0,1-5.14-5.43,116.22,116.22,0,0,0-3-11.59c1.48-4.93-3.43-17-3.43-17,1.47-7.65-6.61-12.33-6.61-12.33C617.79,826.5,609,821.57,609,821.57c-5.63-4.93-4.16-10.1-4.16-10.1a11.5,11.5,0,0,0-1-7.41,21.45,21.45,0,0,1-1.47-11.1c4.41-2.7.73-10.85.73-10.85-4.16-11.33-1.23-13.56-1.23-13.56,5.89.74,3.2-7.64,3.2-7.64-2.46-8.14,1.22-10.12,1.22-10.12l13.24-1.47L607,747.59c.5-1.23.74-6.41.74-6.41l11.77-5.42-12.75.74c-1.22-1.24-4.41-5.19-4.41-5.19l4.41-4.92-8.82,3.45-9.56-3.21,1.47-13.8-6.62,14c-3.92-.49-14.71,2-14.71,2l-10.29-9.12,4.9,12.32a22.71,22.71,0,0,0-5.21,4.85l7,1.65a112.51,112.51,0,0,1,34.12,0l3.28,6.7-17.72,8.07s-3.93,16.75,0,20.52c0,0-8.53,4.68.66,8.82,0,0,13.78,2.16,1.31,11.35s-21-29.71-21-29.71,3.93-10.12,9.84-14.15-16.75-5.45-21.83,11.66-19.51,8.08-19.51,8.08-6,18-31.23,29.9c0,0,19.42-.59,32.54-9.42,0,0-15.75,21.56-28.87,26,0,0,24.42-5.07,33-12.1a29.67,29.67,0,0,0,8.69-11l1-3a14,14,0,0,1-1,3L538,824.1s-12.47,24.58-25.59,33.66c0,0,13.77-6.14,21.65-9.68s-5.91,16.39-5.91,16.39,18.64-18.41,24.41-27.7,14.31-21.84,14.31-21.84,2,4.48,8.53,9.17,14.43,10.28,14.43,10.28l12.47,4-25.59,23.11-18.37,26.65c-6.56,9.52,26.24-19.62,26.24-19.62l26.91-24s5.9,13.72,0,20.29S579.34,896,576.06,901.41s-46.58,32.27-46.58,32.27-17.14,13-28.73,16.71C499.91,960.13,509.69,958.36,509.69,958.36Zm85.26,285-.39-.38L574,1223l-11.7-59.13,13.26,36.72,4.47-39.37,10.23-22.82v55.8l7.06,22.8,1.4,4.54Zm53.39-150.74,4.87,71.24L641,1239.07l3-50-8.65-74.81-13-4.76Z" transform="translate(0 -558.95)" style="fill:url(#linear-gradient)"/><path d="M522.91,576.69c-3.81,7.1.59,25.69.59,25.69s5.8,15.43-9.86,17.9c0,0,1,5.25,8,7.72,0,0-13.75,5-1.31,7.78,0,0-17.73,9.51,4.26,10.71,0,0-3,6.44,0,11.69s0,17.06,0,17.06-5.57,6.57-2.29,11.81-2,63.65,3.6,66.27,10.3-6.22,10.3-6.22l-.49-6.67.49,0V737l-1.23,0c.5-11.84-4.9-47.84-4.9-47.84-2.69-23.68,4.42-34,4.42-34,3.43-9.86-1.72-16.53-1.72-16.53-3.93-4.18-4.17-8.12-4.17-8.12-.73-2.23.74-10.37.74-10.37,0-3.69,3.92-6.91,3.92-6.91h8.09c3.92-.74,2-5.17,2-5.17-4.41-3.21-1.72-10.85-1.72-10.85a12.17,12.17,0,0,0-8.26,2c-1.15-3.21-5.95-3.94-5.95-3.94v-7.4c0-3.7,3.85-9.62,3.85-9.62,4.83-4.19-.17-9.12-.17-9.12,1.22-7.65-4.42-10.11-4.42-10.11,0,3.45-4.66,5.18-4.66,5.18a4.22,4.22,0,0,1-.27,1.25c-1.34,3.6-7.32,4.42-7.32,4.42.64,3.43-2.6,4.81-3.47,5.11C512.74,574.31,526.47,570.06,522.91,576.69Z" transform="translate(0 -558.95)" style="fill:url(#linear-gradient-2)"/><path d="M697.13,905.39s7.38,16.9-4.43,13c0,0-8.1-2.78-10-8.28,0,0-1.36,9.26,8,16.15,0,0-7.87,4.43-18.21-6.4,0,0-.22,9,10.22,16.8,0,0-8.74,2.39-14.65-4,0,0,4.33,8.44,10.18,13.92a11,11,0,0,1,6.67-5.13c3.67-1.74,10.29-9.92,10.29-9.92,2.7-4.49,9.07-9.32,9.07-9.32,3.19-2,1-6.41,1-6.41l-3.68-6.42L708,900l-1.23-4.18,2.45-2.47L668,869.91l-1.72,3.19-.72.11,22.68,18.08Z" transform="translate(0 -558.95)" style="fill:url(#linear-gradient-3)"/><polygon points="681.41 769.34 700.27 769.34 700.27 725.93 589.43 733.5 583.85 748.29 611.05 759.66 598.7 767.39 681.33 767.38 679.19 769.34 667.93 779.68 639.38 782.31 639.38 887.98 605.92 887.98 605.92 785.38 594.04 786.48 591.32 786.87 591.32 887.98 557.86 887.98 557.86 791.65 543.91 793.64 543.91 887.98 510.45 887.98 510.45 798.43 502.32 799.59 479.61 909.73 681.41 909.73 681.41 769.34" style="fill:url(#linear-gradient-4)"/><polygon points="619.37 931.91 656.32 936.43 700.27 936.43 700.27 909.73 681.41 909.73 571.47 918.57 581.55 921.38 619.37 931.91" style="fill:url(#linear-gradient-5)"/><path d="M496.7,806.53a14,14,0,0,1,2,11.1c-5.14,11.83,7.17,17.58,7.17,17.58,6.62,11.64,0,25.52,0,25.52-7.72,7.76,2.21,19.41,2.21,19.41,7.72,8.88,8.82,22.75,8.82,22.75-12.13,20-15.44,43.83-15.44,43.83a19.18,19.18,0,0,0-.67,3.67c11.59-3.75,28.73-16.71,28.73-16.71s43.3-26.81,46.58-32.27,29.53-30,35.44-36.54,0-20.29,0-20.29l-26.91,24s-32.8,29.14-26.24,19.62l18.37-26.65,25.59-23.11-12.47-4s-7.87-5.59-14.43-10.28-8.53-9.17-8.53-9.17-8.53,12.55-14.31,21.84-24.41,27.7-24.41,27.7,13.78-19.93,5.91-16.39-21.65,9.68-21.65,9.68C525.54,848.68,538,824.1,538,824.1l10.17-30.77a29.67,29.67,0,0,1-8.69,11c-8.56,7-33,12.1-33,12.1,13.12-4.49,28.87-26,28.87-26-13.12,8.83-32.54,9.42-32.54,9.42,25.19-11.95,31.23-29.9,31.23-29.9s14.43,9,19.51-8.08,27.73-15.7,21.83-11.66-9.84,14.15-9.84,14.15,8.53,38.9,21,29.71-1.31-11.35-1.31-11.35c-9.19-4.14-.66-8.82-.66-8.82-3.93-3.77,0-20.52,0-20.52l17.72-8.07-3.28-6.7a112.51,112.51,0,0,0-34.12,0l-7-1.65-.43.58L536.16,737v3.46l15,.95-2.69,5.68H536.16s-4.72,8.85-10.3,6.22-.32-61-3.6-66.27,2.29-11.81,2.29-11.81,3-11.81,0-17.06,0-11.69,0-11.69c-22-1.2-4.26-10.71-4.26-10.71C507.85,633,521.6,628,521.6,628c-7-2.47-8-7.72-8-7.72,15.66-2.47,9.86-17.9,9.86-17.9s-4.4-18.59-.59-25.69c3.56-6.63-10.17-2.38-12-1.78l-.21.07c-2.94,6.41,2.21,11.84,2.21,11.84l.24,10.59c-5.39-.25-6.37,2-6.37,2-2.69-3-7.6-1.74-7.6-1.74,2.46,6.41-.24,10.85-.24,10.85-2.21,3.71,1.95,5.18,1.95,5.18H508c2.94,1.48,2.45,4.93,2.45,4.93-6.61,3.21-1.71,11.1-1.71,11.1-3.92,6.66,1,8.87,1,8.87-2.45,2.22-.49,7.16-.49,7.16-3.43,1.48-1.47,8.87.25,11.59s2.45,7.89,2.45,7.89c3.31,12.57-.74,34-.74,34-3.31,17.39.25,53.26.25,54.25s-8.1,10.11-8.1,10.11C488.61,782.36,496.7,806.53,496.7,806.53Zm46.69-56s3.06-.49,3.8,5.43c0,0,.73,7.4,2.21,9.12,0,0,.73,3.21-2,3.45,0,0-2.58,2.18-3.72-3.32l1.34.72-1.67-11.45-2.59-2.45A2.23,2.23,0,0,1,543.39,750.55Z" transform="translate(0 -558.95)" style="fill:#0a0907"/><path d="M649.88,983c-1.29-.1.18,1.54,2.74,3.8,0-.14,0-.22,0-.22L657,975l4.17.24,5.21-8.73,11.69-19.61c.07-.11.14-.2.2-.3-5.85-5.48-10.18-13.92-10.18-13.92,5.91,6.39,14.65,4,14.65,4-10.44-7.81-10.22-16.8-10.22-16.8,10.34,10.83,18.21,6.4,18.21,6.4-9.35-6.89-8-16.15-8-16.15,1.86,5.5,10,8.28,10,8.28,11.81,3.93,4.43-13,4.43-13l-8.86-14.1-22.68-18.08-4.18.64-2.87,4.6-6.69,10.69a4,4,0,0,1-1,.13l-.13,0,10,24.56L647,932S653.82,983.29,649.88,983Z" transform="translate(0 -558.95)" style="fill:#0a0907"/><path d="M595,1248.92c3.07,13.43,19.17-34.3,19.17-34.3L627.9,1137l-20.59,25s-6.26,29.81-10,54.91l-7.06-22.8v-55.8L580,1161.19l-4.47,39.37-13.26-36.72L574,1223l20.58,20A27,27,0,0,0,595,1248.92Z" transform="translate(0 -558.95)" style="fill:#0a0907"/><polygon points="653.21 604.89 648.34 533.65 622.32 550.5 635.33 555.27 643.98 630.07 641.02 680.12 653.21 604.89" style="fill:#0a0907"/><path d="M450.81,1468.68v26.7H656.32l-37-4.52-37.81-10.53-10.09-2.8,109.94-8.85H479.61l22.71-110.14,8.13-1.16v89.56h33.46V1352.6l13.94-2v96.34h33.47V1345.82l2.72-.39,11.88-1.09v102.6h33.46V1341.26l28.55-2.63,11.26-10.34,2.14-2H598.7l12.35-7.72-27.2-11.37,5.58-14.8,54.78-3.74,8.08.19c8.11.22,16.22.44,24.31.71v-3.11l23.67-1.62v-1.79H676.6v-6.43l-131.38-5.85,127.3-7.64-58.4-1.61L540.63,1256,580,1251.3l-41.35-1.91-10.75-6.05,13.7-68.35-12.93,10.37L517,1217.88l4.92-28-19.69,39.53L516,1182.67l29.53-21.48,26.58-87.11L579,1020.9,557.29,1068l-28.47,17.88c8.57-4.44,48.23-71.77,48.23-71.77l8.86-7-7.76,67.48-11.93,45.1L583,1106.3l11.81-68.12,3.94-39.86L606.58,983l2,50.36-11.81,65.77,28.54-18.53v-63.78l-7.21-99.27s11.75-58.54,5.25-50.09-35.44,40.11-40.68,42.66S538,946.24,536,949c-1.08,1.53-9.65,5.13-17.18,8.07a5.43,5.43,0,0,1,.94,1.26c2.39,16.65-5.14,32.74-5.14,32.74-7.17,12.21,0,21.08,0,21.08-3.87,12.21,2.2,28.86,2.2,28.86,6.62,20,0,46.59,0,46.59-6.61,5.56-2.75,9.44-2.75,9.44-.56,8.32-10.48,27.19-10.48,27.19-9.93,11.64-10.48,53.81-10.48,53.81.55,23.85-22.61,52.71-22.61,52.71v9.43l-8.27,3.88v16.09l-4.68,2.37,13.79,20.54H450.81v45.2h17.4v140.39Z" transform="translate(0 -558.95)" style="fill:#0a0907"/><polygon points="535.46 1019.39 492.12 1098.3 546.3 1119.55 627.9 1134.88 732.37 1134.88 732.37 936.43 647.88 936.43 584.5 952.62 535.46 1019.39" style="fill:url(#linear-gradient-6)"/><polygon points="584.5 1159 527.33 1165.07 627.9 1171.3 783.15 1171.3 783.15 1134.88 653.21 1141.8 584.5 1159" style="fill:url(#linear-gradient-7)"/><polygon points="520.56 1213.63 451.55 1229.82 414.92 1241.11 929.42 1241.11 929.42 1171.3 594.62 1190.37 520.56 1213.63" style="fill:url(#linear-gradient-8)"/><polygon points="427.64 1345.15 612.66 1359.32 520.56 1378.54 1091.94 1392.85 1091.94 1241.11 500.7 1307.72 427.64 1345.15" style="fill:url(#linear-gradient-9)"/><polygon points="627.9 1134.88 546.3 1119.55 492.12 1098.3 535.46 1019.39 584.5 952.62 647.88 936.43 427.64 936.43 427.64 1134.88 627.9 1134.88" style="fill:#0a0907"/><polygon points="427.64 1134.88 376.86 1134.88 376.86 1171.3 627.9 1171.3 527.33 1165.07 584.5 1159 653.21 1141.8 783.15 1134.88 732.37 1134.88 627.9 1134.88 427.64 1134.88" style="fill:#0a0907"/><polygon points="376.86 1171.3 230.59 1171.3 230.59 1241.11 414.92 1241.11 451.55 1229.82 520.56 1213.63 594.62 1190.37 929.42 1171.3 783.15 1171.3 627.9 1171.3 376.86 1171.3" style="fill:#0a0907"/><polygon points="230.59 1241.11 68.07 1241.11 68.07 1392.85 1091.94 1392.85 520.56 1378.54 612.66 1359.32 427.64 1345.15 500.7 1307.72 1091.94 1241.11 929.42 1241.11 414.92 1241.11 230.59 1241.11" style="fill:#0a0907"/><polygon points="2067 1392.85 724.18 1392.85 0 1392.85 0 1441.05 913.07 1441.05 2829.52 1441.05 2829.52 1392.85 2067 1392.85" style="fill:#0a0907"/></g></g></g></g></svg>