<svg xmlns="http://www.w3.org/2000/svg" xmlns:xlink="http://www.w3.org/1999/xlink" viewBox="0 0 600 400"><defs><linearGradient id="linear-gradient" x1="281.96" y1="83.69" x2="281.96" y2="75.53" gradientUnits="userSpaceOnUse"><stop offset="0" stop-color="#090d12"/><stop offset="0.37" stop-color="#0f161d"/><stop offset="1" stop-color="#16222d"/></linearGradient><linearGradient id="linear-gradient-2" x1="300" y1="400" x2="300" y2="84.02" xlink:href="#linear-gradient"/></defs><g id="Layer_2" data-name="Layer 2"><g id="_ÎÓÈ_1" data-name="—ÎÓÈ_1"><rect width="600" height="400" style="fill:none"/><g id="_0" data-name="0"><path d="M280.18,83.4a1.54,1.54,0,0,0,1,.29,12.66,12.66,0,0,1,1.5,0,1.59,1.59,0,0,0,1.16-.42c1-1,2.57-3.55-2.14-7.73,0,0-.34,3-1.87,4.31S279.15,82.65,280.18,83.4Z" style="fill:url(#linear-gradient)"/><path d="M382.26,369.34V356.05H352V343.62H337V331.2H334.5v-8h1.25v-7.59l-4-7.6H328V270.75h3.72v-7.59H325V250.6h-2v-6.35h-2.8s.67-12.38,0-17.78c.67-1.12,2.62-.22.3-10.8,1-2.25,2.51-9.23,1.11-26.55,2.86-1.8,4.44-5.63,5.34-11.71,1.8.23,9-4.95,6.75-9.67s-1.39-2.93.43-4.5a73.29,73.29,0,0,0-7.63-5.18s-2.93,2-3.83,4.28c-2.47-1.8-6.07-5.63-7-9.9s-3.12-6.31-4.94-7c-1.81-2.93.59-5.4-2.64-10.58,0,0-.07-1.16-.07-2.58a11.69,11.69,0,0,0-.12-1.69l5.8-.8-6.15-.88a10.14,10.14,0,0,0-1.16-2.63l4.34-5.74-5.58,4.24a5.67,5.67,0,0,0-2.59-1.48l-1.07-7.74-1.07,7.74a5.41,5.41,0,0,0-2.42,1.3l-5.35-4.06,4.13,5.45a10.41,10.41,0,0,0-1.4,3.09V129l-4.75.66a4.49,4.49,0,0,0-.95-1.55c-.34-4-.88-12.49-3.27-15.75a59.88,59.88,0,0,0-1.8-12.83c0-2,.9-3,1.13-4.74h1.92V89.13h-3.19V87.62h-.26a1.47,1.47,0,0,0,1.47-1.47v-.66A1.47,1.47,0,0,0,284.22,84h-5.07a1.47,1.47,0,0,0-1.47,1.47v.66a1.47,1.47,0,0,0,1.47,1.47h-.25v1.51h-3.19v5.68h.81l2,4.74s0,10.13,1.57,14-.92,11.7,1.57,18.79c-.89,2.36-4.49,11.58,1.13,14.06-1.12,1.8-.67,4,1.13,7.88-1.13,2.92,1.11,6.52,3.48,9.9-2.81,2.7-9.33,16-1,15.52a42.28,42.28,0,0,0-.9,18.23c1.35,9.68-1.35,17.78-1.35,22.28s4.73,19.58-4.72,24.08H277v6.35h-2v12.56h-6.76v7.59H272V308h-3.72l-4,7.6v7.59h1.25v8H263v12.42H248v12.43H217.74v13.29h-38V400H420.23V369.34ZM295,133.33a3.74,3.74,0,0,1-2.1,3.38,7.49,7.49,0,0,0-1.77-1.6c.62-.93.28-3.37-.4-5.16l4.35.6a12.42,12.42,0,0,0-.13,1.75C295,132.65,295,133,295,133.33Z" style="fill:url(#linear-gradient-2)"/></g></g></g></svg>