<svg xmlns="http://www.w3.org/2000/svg" xmlns:xlink="http://www.w3.org/1999/xlink" viewBox="0 0 600 400"><defs><linearGradient id="linear-gradient" x1="300" y1="400" x2="300" y2="257.56" gradientUnits="userSpaceOnUse"><stop offset="0" stop-color="#0a0e13"/><stop offset="0.4" stop-color="#1c2933"/><stop offset="0.77" stop-color="#283b49"/><stop offset="1" stop-color="#2d4251"/></linearGradient></defs><g id="Layer_2" data-name="Layer 2"><g id="_ÎÓÈ_1" data-name="—ÎÓÈ_1"><rect width="600" height="400" style="fill:none"/><path id="_0.5" data-name="0.5" d="M536.33,298.49V348h-2.67V339.4H473.79V348h-2.66v-8h-4.47V318h-3.87V307.35h-6.41v-1.84h.93v-1.33H456a10.17,10.17,0,0,0-19.35,0h-1.29v1.33h.93v1.84H429.9V318H426v22h-4.47v21.42h-4.09v-8h4.09l-4.09-8H313.33l-4.09,8h4.09v8h-4.09V376h-9.09v-19.8h-2.92V312.35h-4.54v-3.24h-3.62a15.14,15.14,0,0,0-27.82,0h-3.62v3.24h-4.55v43.83h-2.92V376h-9.09V348h-2.66V339.4H178.54V348h-2.66v28h-9.09v-19.8h-2.92V312.35h-4.55v-3.24H155.7a15.14,15.14,0,0,0-27.82,0h-3.62v3.24h-4.54v43.83H116.8V376h-9.09V355.31h-6.34v-56l-4.46-9.78V264h-.78l-5.33-6.42H80.86L75.54,264h-.78v25.51l-4.46,9.78v56H65V298.49H0V400H600V298.49Z" style="fill:url(#linear-gradient)"/></g></g></svg>