<svg xmlns="http://www.w3.org/2000/svg" xmlns:xlink="http://www.w3.org/1999/xlink" viewBox="0 0 600 400"><defs><linearGradient id="linear-gradient" x1="573.24" y1="400" x2="573.24" y2="108.7" gradientUnits="userSpaceOnUse"><stop offset="0" stop-color="#0a0e13"/><stop offset="0.07" stop-color="#1b242b"/><stop offset="0.18" stop-color="#33424c"/><stop offset="0.3" stop-color="#475b67"/><stop offset="0.42" stop-color="#566e7c"/><stop offset="0.57" stop-color="#617c8b"/><stop offset="0.74" stop-color="#678493"/><stop offset="1" stop-color="#698696"/></linearGradient><linearGradient id="linear-gradient-2" x1="358.81" y1="400" x2="358.81" y2="311.31" gradientUnits="userSpaceOnUse"><stop offset="0" stop-color="#0a0e13"/><stop offset="0.02" stop-color="#0e1319"/><stop offset="0.1" stop-color="#202c36"/><stop offset="0.2" stop-color="#2f414d"/><stop offset="0.31" stop-color="#3b515f"/><stop offset="0.44" stop-color="#435c6c"/><stop offset="0.61" stop-color="#486273"/><stop offset="1" stop-color="#496475"/></linearGradient><linearGradient id="linear-gradient-3" x1="192.7" x2="192.7" y2="253.95" xlink:href="#linear-gradient-2"/><linearGradient id="linear-gradient-4" x1="111.34" x2="111.34" y2="250.68" xlink:href="#linear-gradient-2"/><linearGradient id="linear-gradient-5" x1="251.24" x2="251.24" y2="219.13" xlink:href="#linear-gradient-2"/><linearGradient id="linear-gradient-6" x1="422.65" x2="422.65" y2="255.08" xlink:href="#linear-gradient-2"/><linearGradient id="linear-gradient-7" x1="497.64" x2="497.64" y2="232.62" xlink:href="#linear-gradient-2"/><linearGradient id="linear-gradient-8" x1="32.74" x2="32.74" y2="222.44" xlink:href="#linear-gradient-2"/></defs><g id="Layer_2" data-name="Layer 2"><g id="_ÎÓÈ_1" data-name="—ÎÓÈ_1"><path id="_1" data-name="1" d="M597.2,343.61V325.28H598V323.4h-4.78V235.82h1.36v-2.71h-4.75v-43a2.27,2.27,0,0,0-2.13-2.26v-4.23a14.15,14.15,0,0,0-2.69-8.31v-.15a11.54,11.54,0,0,0-2.07-6.6v-.1a9.48,9.48,0,0,0-2.27-6.12v-.78a7.28,7.28,0,0,0-2.17-5.19v-2.09a5.14,5.14,0,0,0-2.23-4.25v-2a2.94,2.94,0,0,0-2.28-2.86l-.7-36.46-.71,36.46a3,3,0,0,0-2.28,2.86v2a5.14,5.14,0,0,0-2.23,4.25v2.09a7.28,7.28,0,0,0-2.17,5.19v.78a9.48,9.48,0,0,0-2.27,6.12v.1a11.54,11.54,0,0,0-2.07,6.6v.15a14.15,14.15,0,0,0-2.69,8.31v4.23a2.28,2.28,0,0,0-2.13,2.26v43H552v2.71h1.35V323.4h-4.78v1.88h.75v18.33h-2.8V400H600V343.61Z" style="fill:url(#linear-gradient)"/><polygon id="_1-2" data-name="1" points="374.73 323.22 374.73 317.9 368.54 317.9 368.54 311.31 337.97 311.31 337.97 317.9 331.78 317.9 331.78 323.22 331.78 400 385.83 400 385.83 323.22 374.73 323.22" style="fill:url(#linear-gradient-2)"/><polygon id="_1-3" data-name="1" points="212.1 282.7 212.1 269.27 207.9 269.27 207.9 264.25 206.56 264.25 203.25 253.95 182.15 253.95 178.84 264.25 177.5 264.25 177.5 269.27 173.3 269.27 173.3 282.7 170.79 282.7 170.79 400 214.61 400 214.61 282.7 212.1 282.7" style="fill:url(#linear-gradient-3)"/><polygon id="_1-4" data-name="1" points="107.75 254.35 107.75 250.68 97.93 250.68 97.93 254.35 95.43 254.35 95.43 261.73 96.47 261.73 96.47 400 126.21 400 126.21 261.73 127.25 261.73 127.25 254.35 107.75 254.35" style="fill:url(#linear-gradient-4)"/><polygon id="_1-5" data-name="1" points="268.02 251.64 251.24 219.13 234.47 251.64 231.24 251.64 231.24 254.98 232.74 254.98 232.74 400 269.75 400 269.75 254.98 271.24 254.98 271.24 251.64 268.02 251.64" style="fill:url(#linear-gradient-5)"/><polygon id="_1-6" data-name="1" points="433.02 255.08 433.02 256.8 412.28 256.8 412.28 255.08 407.83 255.08 407.83 400 437.47 400 437.47 255.08 433.02 255.08" style="fill:url(#linear-gradient-6)"/><polygon id="_1-7" data-name="1" points="508.38 248.27 508.38 245.33 507.41 245.33 507.41 244.57 506 244.57 499.55 236.46 499.55 232.62 495.72 232.62 495.72 236.46 489.27 244.57 487.87 244.57 487.87 245.33 486.9 245.33 486.9 248.27 482.8 248.27 482.8 400 512.47 400 512.47 248.27 508.38 248.27" style="fill:url(#linear-gradient-7)"/><polygon id="_1-8" data-name="1" points="45.42 257.2 45.42 225.87 42.49 225.87 42.49 222.44 18.52 222.44 18.52 225.87 15.58 225.87 15.58 257.2 15.58 400 49.9 400 49.9 257.2 45.42 257.2" style="fill:url(#linear-gradient-8)"/><rect width="600" height="400" style="fill:none"/></g></g></svg>