<svg xmlns="http://www.w3.org/2000/svg" xmlns:xlink="http://www.w3.org/1999/xlink" viewBox="0 0 600 400"><defs><linearGradient id="linear-gradient" x1="475.73" y1="400" x2="475.73" y2="206.43" gradientUnits="userSpaceOnUse"><stop offset="0" stop-color="#0a0e13"/><stop offset="0.07" stop-color="#1b242b"/><stop offset="0.18" stop-color="#33424c"/><stop offset="0.3" stop-color="#475b67"/><stop offset="0.42" stop-color="#566e7c"/><stop offset="0.57" stop-color="#617c8b"/><stop offset="0.74" stop-color="#678493"/><stop offset="1" stop-color="#698696"/></linearGradient><linearGradient id="linear-gradient-2" x1="377.84" x2="377.84" y2="131.59" xlink:href="#linear-gradient"/><linearGradient id="linear-gradient-3" x1="134.1" x2="134.1" y2="61.28" xlink:href="#linear-gradient"/></defs><g id="Layer_2" data-name="Layer 2"><g id="_ÎÓÈ_1" data-name="—ÎÓÈ_1"><polygon id="_2" data-name="2" points="501.44 244.53 501.44 226.73 495.87 226.73 495.87 220.08 494.1 220.08 489.71 206.43 461.74 206.43 457.35 220.08 455.58 220.08 455.58 226.73 450.01 226.73 450.01 244.53 446.69 244.53 446.69 400 504.77 400 504.77 244.53 501.44 244.53" style="fill:url(#linear-gradient)"/><path id="_2-2" data-name="2" d="M408.06,383.94V353.52h-6.94V335.93h-4V240.78H396V218.22h-2.88v-9.34h-1.95v-5.23h-2.22v-5.24h-4.1v-2.62h-1.95v-4.15h-1.05V187.5h-.91V171.87h.91V170.8h-.91v-.87a2.93,2.93,0,0,0-.16-.93h1.07v-1.06h-1.67a3,3,0,0,0-1.22-.85l-1.09-35.5-1.09,35.5a3,3,0,0,0-1.21.85h-1.68V169h1.07a3.24,3.24,0,0,0-.16.93v.87h-.91v1.07h.91V187.5h-.91v4.14h-1v4.15h-1.95v2.62h-4.11v5.24h-2.21v5.23H362.6v9.34h-2.89v22.56h-1.18v95.15h-4v17.59h-6.93v30.42h-9.56V400h79.54V383.94Z" style="fill:url(#linear-gradient-2)"/><path id="_2-3" data-name="2" d="M149.68,109.21H145.6c0-2.19-3.06-4-7.37-4.8l-1.71-5.12-2.42-38-2.42,38L130,104.41c-4.31.75-7.37,2.61-7.37,4.8h-4.08L100.52,400h67.16Z" style="fill:url(#linear-gradient-3)"/><rect width="600" height="400" style="fill:none"/></g></g></svg>