<svg xmlns="http://www.w3.org/2000/svg" xmlns:xlink="http://www.w3.org/1999/xlink" viewBox="0 0 600 400"><defs><linearGradient id="linear-gradient" x1="165.29" y1="400" x2="165.29" y2="217.81" gradientUnits="userSpaceOnUse"><stop offset="0" stop-color="#0a0e13"/><stop offset="0.07" stop-color="#1b242b"/><stop offset="0.18" stop-color="#33424c"/><stop offset="0.3" stop-color="#475b67"/><stop offset="0.42" stop-color="#566e7c"/><stop offset="0.57" stop-color="#617c8b"/><stop offset="0.74" stop-color="#678493"/><stop offset="1" stop-color="#698696"/></linearGradient><linearGradient id="linear-gradient-2" x1="83.66" x2="83.66" y2="250.01" xlink:href="#linear-gradient"/><linearGradient id="linear-gradient-3" x1="25.16" x2="25.16" y2="211.84" xlink:href="#linear-gradient"/><linearGradient id="linear-gradient-4" x1="528.36" x2="528.36" y2="265.8" xlink:href="#linear-gradient"/><linearGradient id="linear-gradient-5" x1="402.18" x2="402.18" y2="229.98" xlink:href="#linear-gradient"/><linearGradient id="linear-gradient-6" x1="331.78" x2="331.78" y2="253.29" xlink:href="#linear-gradient"/><linearGradient id="linear-gradient-7" x1="210.91" x2="210.91" y2="227.92" xlink:href="#linear-gradient"/></defs><g id="Layer_2" data-name="Layer 2"><g id="_ÎÓÈ_1" data-name="—ÎÓÈ_1"><rect id="_3" data-name="3" x="144.82" y="217.81" width="40.94" height="182.19" style="fill:url(#linear-gradient)"/><rect id="_3-2" data-name="3" x="63.19" y="250.01" width="40.94" height="149.99" style="fill:url(#linear-gradient-2)"/><rect id="_3-3" data-name="3" x="4.69" y="211.84" width="40.94" height="188.16" style="fill:url(#linear-gradient-3)"/><polygon id="_3-4" data-name="3" points="544.28 283.82 544.28 275.77 538.1 275.77 538.1 265.8 507.53 265.8 507.53 275.77 501.34 275.77 501.34 283.82 501.34 400 555.38 400 555.38 283.82 544.28 283.82" style="fill:url(#linear-gradient-4)"/><rect id="_3-5" data-name="3" x="381.71" y="229.98" width="40.94" height="170.02" style="fill:url(#linear-gradient-5)"/><rect id="_3-6" data-name="3" x="311.31" y="253.29" width="40.94" height="146.71" style="fill:url(#linear-gradient-6)"/><polygon id="_3-7" data-name="3" points="219.65 298.09 219.65 256.06 220.55 254.52 220.55 250.82 212.37 232.83 212.37 231.75 213.28 231.75 213.28 231.06 212.37 231.06 212.37 227.92 209.46 227.92 209.46 231.06 208.55 231.06 208.55 231.75 209.46 231.75 209.46 232.83 201.27 250.82 201.27 254.52 202.18 256.06 202.18 298.09 196.23 298.09 196.23 400 225.59 400 225.59 298.09 219.65 298.09" style="fill:url(#linear-gradient-7)"/><rect width="600" height="400" style="fill:none"/></g></g></svg>