<svg xmlns="http://www.w3.org/2000/svg" xmlns:xlink="http://www.w3.org/1999/xlink" viewBox="0 0 3559.03 562.55"><defs><clipPath id="clip-path" transform="translate(185.03 -11.68)"><rect id="bg" width="2829.52" height="2000" style="fill:none"/></clipPath><clipPath id="clip-path-2" transform="translate(185.03 -11.68)"><rect x="-46.37" y="415.34" width="511.46" height="226.96" style="fill:none"/></clipPath><clipPath id="clip-path-3" transform="translate(185.03 -11.68)"><rect x="2418.21" y="-54.56" width="412.36" height="265.32" style="fill:none"/></clipPath></defs><g id="Layer_2" data-name="Layer 2"><g id="Layer_1-2" data-name="Layer 1"><g style="clip-path:url(#clip-path)"><g id="clouds"><path d="M2158.91,113.77c-41.61,0-75.76,18.73-79.54,42.64h159.09C2234.67,132.5,2200.52,113.77,2158.91,113.77Z" transform="translate(185.03 -11.68)" style="fill:#ffeac2"/><path d="M2067.2,134.47c-21.42,0-39,9.63-40.94,21.94h81.88C2106.19,144.1,2088.62,134.47,2067.2,134.47Z" transform="translate(185.03 -11.68)" style="fill:#ffeac2"/><path d="M2006.38,144.57c-13.1,0-23.86,5.9-25.05,13.43h50.09C2030.23,150.47,2019.48,144.57,2006.38,144.57Z" transform="translate(185.03 -11.68)" style="fill:#ffeac2"/><path d="M1826.47,163c-41.62,0-75.77,18.73-79.55,42.65H1906C1902.23,181.7,1868.08,163,1826.47,163Z" transform="translate(185.03 -11.68)" style="fill:#ffeac2"/><path d="M1734.75,183.67c-21.41,0-39,9.64-40.93,22h81.87C1773.75,193.31,1756.17,183.67,1734.75,183.67Z" transform="translate(185.03 -11.68)" style="fill:#ffeac2"/><path d="M1907.37,183.67c-21.41,0-39,9.64-40.94,22h81.88C1946.36,193.31,1928.79,183.67,1907.37,183.67Z" transform="translate(185.03 -11.68)" style="fill:#ffeac2"/><path d="M1673.93,192.19c-13.1,0-23.85,5.9-25,13.43H1699C1697.79,198.09,1687,192.19,1673.93,192.19Z" transform="translate(185.03 -11.68)" style="fill:#ffeac2"/><path d="M1959.66,192.19c-13.1,0-23.85,5.9-25,13.43h50.09C1983.52,198.09,1972.76,192.19,1959.66,192.19Z" transform="translate(185.03 -11.68)" style="fill:#ffeac2"/><g style="clip-path:url(#clip-path-2)"><path d="M135.57,476.13C60.45,476.13-1.21,510-8,553.13H279.19C272.36,510,210.7,476.13,135.57,476.13Z" transform="translate(185.03 -11.68)" style="fill:#ffeac2"/><path d="M-30,513.5c-38.67,0-70.4,17.4-73.92,39.63H43.91C40.4,530.9,8.66,513.5-30,513.5Z" transform="translate(185.03 -11.68)" style="fill:#ffeac2"/><path d="M281.64,513.5c-38.66,0-70.4,17.4-73.91,39.63H355.56C352,530.9,320.31,513.5,281.64,513.5Z" transform="translate(185.03 -11.68)" style="fill:#ffeac2"/><path d="M-139.82,528.89c-23.65,0-43.06,10.64-45.21,24.24H-94.6C-96.75,539.53-116.16,528.89-139.82,528.89Z" transform="translate(185.03 -11.68)" style="fill:#ffeac2"/><path d="M376.05,528.89c-23.65,0-43.07,10.64-45.22,24.24h90.44C419.12,539.53,399.7,528.89,376.05,528.89Z" transform="translate(185.03 -11.68)" style="fill:#ffeac2"/><path d="M-.71,531.58c41.61,0,75.76,18.73,79.54,42.64H-80.26C-76.47,550.31-42.32,531.58-.71,531.58Z" transform="translate(185.03 -11.68)" style="fill:#f0c998"/><path d="M91,552.28c21.41,0,39,9.63,40.94,21.94H50.06C52,561.91,69.58,552.28,91,552.28Z" transform="translate(185.03 -11.68)" style="fill:#f0c998"/><path d="M151.82,560.8c13.1,0,23.86,5.89,25.05,13.42H126.78C128,566.69,138.72,560.8,151.82,560.8Z" transform="translate(185.03 -11.68)" style="fill:#f0c998"/></g><g style="clip-path:url(#clip-path-3)"><path d="M2951.23,11.68c-111.17,0-202.41,50-212.51,113.93h425C3153.64,61.71,3062.4,11.68,2951.23,11.68Z" transform="translate(185.03 -11.68)" style="fill:#ffeac2"/><path d="M2706.22,67C2649,67,2602,92.72,2596.84,125.61h218.75C2810.39,92.72,2763.43,67,2706.22,67Z" transform="translate(185.03 -11.68)" style="fill:#ffeac2"/><path d="M3167.38,67c-57.21,0-104.17,25.75-109.37,58.64h218.75C3271.56,92.72,3224.6,67,3167.38,67Z" transform="translate(185.03 -11.68)" style="fill:#ffeac2"/><path d="M2555.44,102.93c-28.87,0-52.56,10-55.18,22.84h110.37C2608,113,2584.31,102.93,2555.44,102.93Z" transform="translate(185.03 -11.68)" style="fill:#ffeac2"/><path d="M3307.08,89.74c-35,0-63.73,15.75-66.91,35.87H3374C3370.81,105.49,3342.08,89.74,3307.08,89.74Z" transform="translate(185.03 -11.68)" style="fill:#ffeac2"/></g></g></g></g></g></svg>