<svg xmlns="http://www.w3.org/2000/svg" viewBox="0 0 7617.96 2130.05"><g id="Layer_2" data-name="Layer 2"><g id="Layer_1-2" data-name="Layer 1"><path d="M6939.61,614.47c-9.93-12.31-36.8-7.16-60,11.54s-34,43.86-24.06,56.2c1.09,1.34,8.59,11.13,8.59,11.13s30.75-6,51.44-22.66c20.33-16.35,32.65-45.07,32.65-45.07S6940.86,616,6939.61,614.47Z" style="fill:#85885e"/><path d="M6948.19,625.61c-9.92-12.33-36.81-7.18-60,11.53s-34,43.85-24.06,56.2,36.8,7.16,60-11.54S6958.15,638,6948.19,625.61Z" style="fill:#777953"/><path d="M6927.25,642.49c-4.15-5.17-17-1.74-28.62,7.64s-17.74,21.17-13.57,26.34,17,1.72,28.6-7.66S6931.4,647.65,6927.25,642.49Z" style="fill:#9c9e6d"/><path d="M7182.39,864.83c-9.92-12.32-36.8-7.16-60,11.53s-34,43.87-24.06,56.21c1.08,1.34,8.59,11.12,8.59,11.12s30.74-6,51.44-22.65C7178.65,904.68,7191,876,7191,876S7183.63,866.38,7182.39,864.83Z" style="fill:#85885e"/><path d="M7191,876c-9.93-12.32-36.82-7.17-60,11.54s-34,43.85-24,56.19,36.79,7.17,60-11.52S7200.93,888.33,7191,876Z" style="fill:#777953"/><path d="M7170,892.84c-4.16-5.15-17-1.73-28.62,7.65s-17.74,21.16-13.58,26.33,17,1.73,28.62-7.65S7174.18,898,7170,892.84Z" style="fill:#9c9e6d"/><rect x="6664.48" y="795.43" width="96.08" height="6" transform="translate(979.25 4379.63) rotate(-38.77)" style="fill:#81845a"/><path d="M6710.92,809.48c-6.34-7.86-23.47-4.57-38.28,7.35s-21.67,28-15.33,35.83c.68.86,5.47,7.09,5.47,7.09s19.6-3.81,32.79-14.45c13-10.42,20.81-28.73,20.81-28.73S6711.71,810.46,6710.92,809.48Z" style="fill:#85885e"/><path d="M6716.38,816.57c-6.32-7.85-23.46-4.57-38.27,7.35s-21.67,28-15.33,35.83,23.46,4.57,38.26-7.35S6722.73,824.46,6716.38,816.57Z" style="fill:#777953"/><path d="M6703,827.33c-2.66-3.28-10.82-1.11-18.25,4.88s-11.31,13.49-8.66,16.78,10.82,1.11,18.25-4.88S6705.69,830.63,6703,827.33Z" style="fill:#9c9e6d"/><path d="M6687.7,835.83c-.85,2.71.2,4.38,3.76,4.67l74.9-60.16-3.76-4.68Z" style="fill:#81845a"/><path d="M6882.81,514.56c-41.87-12.34-72.74-19.1-99.57-12.51-16.09,3.94-21.39,25.26-9.77,37.07L6961.22,730c38.87-15.41,78.17-28.09,118.4-37L6932.45,545.27C6920.76,533.54,6898.7,519.24,6882.81,514.56Z" style="fill:#b36222"/><path d="M6886.82,509.57c-41.88-12.34-75-15.63-101.86-9-16.09,3.94-18.14,21.07-6.53,32.88l176.06,179c47.24-5.22,93-6.88,140.23-12.6L6936.46,540.28C6924.77,528.55,6902.71,514.25,6886.82,509.57Z" style="fill:#cc7a2d"/><path d="M6887.78,508.86c-22.7-6.69-42.7-10.14-60.91-11.19,82.73,66.43,151.15,135.48,204.55,208,21.85-1.71,58,11.16,79.68,8.52L6937.42,539.56C6925.73,527.83,6903.67,513.54,6887.78,508.86Z" style="fill:#b36222"/><path d="M6695.24,668.63c-23.72-7.43-43.7-14.36-65.87-9.17-2.25.53-7,8.38-7.87,10-1.3,2.37.14,5.46,2.47,8.22l48.73,58,92.19,4.89-45-54.38C6714.34,679.55,6703.52,671.22,6695.24,668.63Z" style="fill:#b36222"/><path d="M6699.82,660.81c-23.72-7.43-46.5-7.18-68.67-2a7.26,7.26,0,0,0-4.8,3.38c-1.3,2.35-.12,4.89,2.2,7.65l48.73,58,92.19,4.9-45-54.39C6718.93,671.73,6708.1,663.4,6699.82,660.81Z" style="fill:#db8230"/><path d="M7330.9,624.77c-35,0-63.31,49.11-63.27,109.65S7296,844,7331,844s63.3-49.11,63.28-109.64S7365.88,624.76,7330.9,624.77Z" style="fill:#f8fed1"/><path d="M7336.05,735.41c9.33-8.31,21-39.86,33.52-87.73-10.71-14.32-24.09-22.91-38.67-22.91a38.68,38.68,0,0,0-13.56,2.59c-1.28,55.6,1.47,93.77,8.53,106-9.33,8.32-21,39.86-33.53,87.74,10.71,14.3,24.1,22.91,38.68,22.89a37.79,37.79,0,0,0,13.56-2.58C7345.85,785.82,7343.11,747.65,7336.05,735.41Z" style="fill:#e8eec3"/><path d="M7309.84,684.91c-26.37-8.46-85.85-5.3-149.25.51-23.39,2.14-15.12,16.73-53.44,21.26-42.32,5-45.71-11.14-52.36-10.4-49.28,5.48-241.55,44.11-268.54,40.89-14.19-1.71,17.36-67.65.45-99.55-14.44-27.23-48-39.65-86.86.57-33.48,34.67-45.07,119.13-44.35,125.52,2.53,22.4,23.72,27.19,76.2,39.22,41,9.4,202.22,42.67,345,29.16,95.47-9,244.69-6.74,263.77-45.15C7363.09,741.38,7343.48,695.69,7309.84,684.91Z" style="fill:#b36222"/><path d="M7309.84,684.91a76.13,76.13,0,0,0-9.67-2.31c-176.24,149.4-435.95,180.06-642.9,64.58-1.4,8.86-2,15-1.78,16.53,2.53,22.4,23.72,27.19,76.2,39.22,41,9.4,202.22,42.67,345,29.16,95.47-9,244.69-6.74,263.77-45.15C7363.09,741.38,7343.48,695.69,7309.84,684.91Z" style="fill:#a65c1f"/><path d="M7178.16,694.38c-12.28-5.91-41.92,8.14-66.36,11.67-27.69,4-55-9.48-55-9.48s8.58,41.45,43.71,48.46c41.61,8.3,71.07,2.61,96.85-9.06S7190.44,700.3,7178.16,694.38Z" style="fill:#94551b"/><path d="M7164.27,730.84c-4,.81-18.68,3.13-22.3,2.38-3.34-.72-8.15-9.38-9.86-12.26-5-8.45-6.62-7.75-14.39-12.67-3.1-2,14.32-.9,20.15-10.23,9-14.38-.51-24.2-3-26.34-2.89-2.45-17.58-8.56-27.11-.32-4.48,3.88-6.42,15.47-7.64,17.6-2.66,4.66-10.37-4.06-18.74,3.88-5.57,5.28-12,22.86-8.86,27,11.91,15.93,32.64,24,41.56,21.48,3.11-.87,5.62-2.57,10-1.49,2.24.55,12.9,3.34,16,3.83s27.6-3.08,29.9-8.91C7172,729.7,7168,730.1,7164.27,730.84Z" style="fill:#864d18"/><path d="M6699.84,638.19c-33.48,34.67-45.07,119.13-44.35,125.52a24.81,24.81,0,0,0,6.83,15.15,30.24,30.24,0,0,1-.68-3.85c-.72-6.39,10.87-90.86,44.35-125.53,35.58-36.85,66.71-29.45,82.79-7a38.12,38.12,0,0,0-2.08-4.84C6772.26,610.39,6738.69,598,6699.84,638.19Z" style="fill:#db8230"/><path d="M7040,698.26c-68.6,9.83-233.21,41.35-253.71,38.91,19.31,4.7,21.69,24.82,21.69,24.82s204.14,49.5,265.15-13.19C7073.09,748.8,7042.43,726.47,7040,698.26Z" style="fill:#d9802f"/><path d="M6835.6,812.64l-56.44-57.89L6691.48,744l-1.88,7.5,42.4,52.76c5.5,6.65,16.33,15,24.61,17.57,23.71,7.43,46.5,7.18,68.67,2a15.93,15.93,0,0,0,5.47-2.63C6834.36,818.68,6836.41,813.63,6835.6,812.64Z" style="fill:#b36222"/><path d="M6832.41,806.92l-48.73-58-92.2-4.89,45,54.39c5.51,6.65,16.34,15,24.61,17.57,23.72,7.43,46.51,7.18,68.67,2,2.24-.54,4.6-1,5.48-2.63C6836.58,813,6834.72,809.68,6832.41,806.92Z" style="fill:#db8230"/><path d="M7468.83,1077.75l-272-267.15-138.61,7.2-2.55,6.28,248,253.9c11.62,11.82,33.24,27.15,49.09,32,37.68,11.46,71.95,10.54,103.69.39C7472.18,1105.3,7480.53,1089.49,7468.83,1077.75Z" style="fill:#b36222"/><path d="M7466.56,1072.48,7202.57,807,7058.22,817.8l250.37,254.48c11.62,11.81,33.24,27.14,49.09,32,37.68,11.46,71.95,10.53,103.69.38C7477.15,1099.59,7478.26,1084.21,7466.56,1072.48Z" style="fill:#cc7a2d"/><path d="M7467.9,1072,7203,806.09l-67.4,5.45c155.33,110.54,290.66,295.13,296.95,299.59,13.32-.77,19.64-3.56,28.83-6.5C7477.15,1099.59,7479.6,1083.7,7467.9,1072Z" style="fill:#b36222"/><path d="M6836.31,564.75c32.25,7.56,61.32,10.19,88.31,9.49l5.35,7.91c-27.14,1.24-56.67-1-90.28-9.35Z" style="fill:#b36222"/><path d="M7283.77,1017.65c34,5,63.71,5.58,88.82,1.47l6,7.39c-27.34,5.19-57.46,5-90.76-1.15Z" style="fill:#b36222"/><path d="M7284.31,1016.85c-5.08,7.63,4.77,11.27,7.77,9.68,51.25-22.5,88.21-48,122.61-83.08l-8.56-8.41C7372.83,969,7334.12,995,7284.31,1016.85Z" style="fill:#81845a"/><path d="M7406.9,1024.74c-3,7.88,6.11,9,10.79,6,49.53-20.62,80.73-39.44,130.39-73.16l-6.74-9.93C7492.34,981,7455.48,1004.5,7406.9,1024.74Z" style="fill:#81845a"/><path d="M6875.3,409.58,6864,405.47c-20.3,55.75-30.81,110.94-31.21,164.06,3.56,4.41,11.72,4.32,12,.09C6845.2,517.87,6855.46,464,6875.3,409.58Z" style="fill:#81845a"/><path d="M7006.64,417l-10.83-5.17c-25.09,52.5-41.9,105-51.4,160.52,1.71,3.36,10.32,6.67,11.84,2C6965.55,519.94,6982,468.46,7006.64,417Z" style="fill:#81845a"/><path d="M7608.28,999.81,6979.33,370.65c-11.69-11.73-29.15-27-45-31.95-54-16.85-95-16.81-129-7.62-16,4.32-18.75,19.79-7.13,31.6l626.13,636.43c11.63,11.81,33.57,26.37,49.59,30.6,45.93,12.14,88.57,10.26,129.1-.57C7619,1024.85,7624.12,1007.19,7608.28,999.81Z" style="fill:#b36222"/><path d="M7610.41,998.71,6983.84,369.88c-11.69-11.73-33.66-26.25-49.47-31.18-54-16.85-95-16.81-129-7.62-4.05,1.09-8.24,2.22-9.58,5.2-2.2,4.84,2,11.13,7.08,16.28L7429,989c11.63,11.81,33.56,26.38,49.58,30.61,45.93,12.13,88.58,10.25,129.11-.59,4.13-1.1,8.42-2.15,9.76-5.12C7619.45,1009.4,7615.3,1003.61,7610.41,998.71Z" style="fill:#db8230"/><path d="M6894.82,335.05l-4.47,97.89,13.44,13.66,5-108.6C6904.05,336.9,6899.39,335.88,6894.82,335.05Z" style="fill:#ec8b34"/><path d="M6932.58,344.43c-3.69-1.15-7.27-2.1-10.88-3.1l-5.39,118,27,27.41,6.13-134.66A94,94,0,0,0,6932.58,344.43Z" style="fill:#ec8b34"/><path d="M6743.5,535.88c-258.22,40.75-489.22,40.75-749.74,36.93,261,27.28,500.52,23.5,760.91-17.42C6767.46,552.05,6759.62,535.34,6743.5,535.88Z" style="fill:#f8fed1"/><path d="M7268.12,1083.43c-293.83,50-581.84,57.37-871.87,63.54,300.53,19.33,596,17.48,899.94-42.4C7307.54,1099.66,7287.13,1080.2,7268.12,1083.43Z" style="fill:#f8fed1"/><path d="M6686.49,663.14,6551,721.62l-14.14,17.1L6689,668.6C6689.71,666.14,6689.91,663.89,6686.49,663.14Z" style="fill:#f8fed1"/><path d="M6658.59,765.06l-144.78-4.4-6.44,11.72,151.15-1.32C6660.46,769.38,6661.05,767.49,6658.59,765.06Z" style="fill:#f8fed1"/><path d="M4710.85,69.87c101,49.85,759.87,488.68,1104.77,598.34,324.37,103.13,665.33,43,683.92,70.26,18.91,27.75,0,124.42-18.92,152.15-32.36,47.4-215,177.47-561,231.61-318.11,49.77-1323-152.39-1323-152.39l-83.37-900S4598,14.14,4710.85,69.87Z" style="fill:#f8fed1"/><path d="M5551.3,555.49c-90.95-45.35-187.09-98-280.76-151.55-165.94,239-351.71,437.12-550.48,589.59,278.35,51.83,950.09,167.72,1199.55,128.7q15.23-2.38,30-5C5706.12,953.12,5606.37,709.14,5551.3,555.49Z" style="fill:#e7edc1"/><path d="M5167.62,72.7c-186.25,0-258,142.68-444,123.72-98.8-10.07-202.48-90.94-210.37-126.55,0,277.49,8.43,969.42,9.68,1101.53,1.12,117.53,809.22,534.45,877.59,467.42,31.74-31.12,40.64-1390.11,45.31-1498.19C5446.89,116,5299.62,72.7,5167.62,72.7Z" style="fill:#e3e8bf"/><path d="M4515.08,262.25c2.55,307.52,7,816.39,7.85,909.15,1.12,117.53,809.22,534.45,877.59,467.42,31.74-31.12,40-1439.8,45.31-1498.19C5337.12,255.46,4604.62,587.61,4515.08,262.25Z" style="fill:#dde2b8"/><path d="M91.93,361.38c140,388.55,276.43,685.57,392.82,795.26C343.14,1274.53,125.26,1540.07,0,1856.75c4,.5,8,1.69,12,2.43,116,21.42,1510.21,197.67,2692.58,238.33,1892,65.06,2741.75-242.09,2741.76-471.69,0-393.62-2.76-860.44-.55-1485.19C5053.62,924,810.93,478.45,91.93,361.38Z" style="fill:#f8fed1"/><path d="M1288.6,1024c-104.68-170.27-198.44-355.87-280.51-553.47C583.28,429.35,251.17,387.31,91.93,361.38c140,388.55,276.43,685.57,392.82,795.26C343.14,1274.53,125.26,1540.07,0,1856.75c4,.5,8,1.69,12,2.43C124.83,1880,1446.59,2047.27,2606.7,2093.85,2111.16,1978.71,1645.27,1604.17,1288.6,1024Z" style="fill:#f0f6c8"/><path d="M5445.58,217.64c-102.22,293.3-228.65,565.21-376.93,806.4-356.72,580.21-822.68,954.77-1318.3,1069.85,1162.57-55.58,1696-286.16,1696-468.07C5446.4,1248.56,5443.85,804,5445.58,217.64Z" style="fill:#f0f6c8"/><path d="M742.75,350.28c0-.25,191.94,18.73,502.34,41.16,310.4,22.62,739.31,48,1213.15,69.82,473.82,22,902.9,36.47,1213.55,38.9,155.33,1.35,281-.37,367.9-3.5s134.87-7.2,134.87-7.09c0-.11-47.84,7.69-134.64,16.24s-212.52,17.66-368,23.62c-310.86,12.21-740.53,12.4-1214.75-9.63C1983,498,1554.07,457.92,1244,420.67,934,383.61,742.76,350,742.75,350.28Z" style="fill:#f8fed1"/><path d="M4635.12,2061.72c0-.22,48.48-6.11,126.4-19,77.87-13.24,185.25-33.59,302-69.55,58.36-18.06,113.48-38.75,162.74-62.31s92.58-50,127.44-77.68c34.92-27.46,61.14-56.23,78-78.73a364.22,364.22,0,0,0,24.92-37.5,372.16,372.16,0,0,1-22.27,42.24c-15.45,25.66-40.37,59.33-74.66,92-34.19,32.88-77.4,64.94-126.94,92.58s-105.31,51.31-164.48,69.63c-118.48,36.46-227.43,46.68-306,49.74C4683.67,2065.86,4635.12,2061.5,4635.12,2061.72Z" style="fill:#f8fed1"/><path d="M5445.83,106.64c-.05.47-29.34-22.74-79.4-43.8S5245.52,24.65,5167.22,30c-78.34,4.62-148.14,31.37-196.95,58.74s-77.54,52.44-77.65,51.92c.14.52,26.35-30.83,74.38-65.56a421.68,421.68,0,0,1,87.36-48.4,360.08,360.08,0,0,1,112.15-26A351.88,351.88,0,0,1,5279.56,12,374.91,374.91,0,0,1,5369,48.84C5418.69,77.38,5445.77,107.14,5445.83,106.64Z" style="fill:#f8fed1"/><path d="M331.62,1963.9c0,.15,89.83,11.28,235.13,25.12,145.3,14.16,346,32.45,567.68,55.18s422.19,45.59,567.44,61.21c145.23,15.89,235.2,23.56,235.2,23.49s-90.12,3.38-235.78-1.55c-145.65-4.66-346.77-16.56-568.56-39.33s-422.23-52-567.1-77.12C420.74,1986.1,331.59,1964.05,331.62,1963.9Z" style="fill:#f8fed1"/><path d="M5606.37,1147.21c0-.14,32.75,12,86.5,17.64,53.7,6,128.14,6.05,210-2.71,81.9-8.59,155.7-24.43,208.44-41.87,52.83-17,84.3-36.24,84.3-36.09,0-.18-30.22,24.2-82.76,46.79-52.37,22.94-126.48,44.43-209.1,53.08-82.6,8.85-157.79,3.24-211.56-8.28C5638.3,1164.62,5606.33,1147,5606.37,1147.21Z" style="fill:#f8fed1"/></g></g></svg>