<svg xmlns="http://www.w3.org/2000/svg" xmlns:xlink="http://www.w3.org/1999/xlink" viewBox="0 0 515.42 57.95"><defs><clipPath id="clip-path" transform="translate(0 -19.79)"><rect x="229.86" width="123.2" height="79.27" style="fill:none"/></clipPath></defs><g id="Layer_2" data-name="Layer 2"><g id="_ÎÓÈ_1" data-name="—ÎÓÈ_1"><path d="M152.38,50.29c-12.43,0-22.63,5.6-23.76,12.74h47.53C175,55.89,164.82,50.29,152.38,50.29Z" transform="translate(0 -19.79)" style="fill:#c9f2ff"/><path d="M125,56.48c-6.4,0-11.65,2.88-12.23,6.55h24.46C136.63,59.36,131.38,56.48,125,56.48Z" transform="translate(0 -19.79)" style="fill:#c9f2ff"/><path d="M106.81,59.5c-3.91,0-7.13,1.76-7.48,4h15C113.94,61.26,110.72,59.5,106.81,59.5Z" transform="translate(0 -19.79)" style="fill:#c9f2ff"/><path d="M53.06,65c-12.44,0-22.64,5.6-23.77,12.75H76.82C75.69,70.59,65.49,65,53.06,65Z" transform="translate(0 -19.79)" style="fill:#e2f8ff"/><path d="M25.66,71.18c-6.4,0-11.65,2.88-12.24,6.56H37.89C37.31,74.06,32.05,71.18,25.66,71.18Z" transform="translate(0 -19.79)" style="fill:#e2f8ff"/><path d="M77.23,71.18c-6.4,0-11.65,2.88-12.23,6.56H89.46C88.88,74.06,83.63,71.18,77.23,71.18Z" transform="translate(0 -19.79)" style="fill:#e2f8ff"/><path d="M7.48,73.72c-3.91,0-7.12,1.77-7.48,4H15C14.61,75.49,11.4,73.72,7.48,73.72Z" transform="translate(0 -19.79)" style="fill:#e2f8ff"/><path d="M92.85,73.72c-3.91,0-7.13,1.77-7.48,4h15C100,75.49,96.77,73.72,92.85,73.72Z" transform="translate(0 -19.79)" style="fill:#e2f8ff"/><g style="clip-path:url(#clip-path)"><path d="M389.11,19.79c-33.22,0-60.48,15-63.49,34h127C449.59,34.74,422.32,19.79,389.11,19.79Z" transform="translate(0 -19.79)" style="fill:#cdf3ff"/><path d="M315.9,36.31c-17.09,0-31.12,7.69-32.67,17.52h65.35C347,44,333,36.31,315.9,36.31Z" transform="translate(0 -19.79)" style="fill:#cdf3ff"/><path d="M453.69,36.31C436.6,36.31,422.56,44,421,53.83h65.36C484.82,44,470.78,36.31,453.69,36.31Z" transform="translate(0 -19.79)" style="fill:#cdf3ff"/><path d="M270.86,47.06c-8.63,0-15.71,3-16.49,6.82h33C286.56,50.05,279.48,47.06,270.86,47.06Z" transform="translate(0 -19.79)" style="fill:#cdf3ff"/><path d="M495.43,43.11c-10.46,0-19,4.71-20,10.72h40C514.47,47.82,505.89,43.11,495.43,43.11Z" transform="translate(0 -19.79)" style="fill:#cdf3ff"/></g></g></g></svg>