<svg xmlns="http://www.w3.org/2000/svg" viewBox="0 0 686.88 1379.38"><g id="Layer_2" data-name="Layer 2"><g id="Layer_1-2" data-name="Layer 1"><path d="M66.61,101A14,14,0,0,1,80.32,114.7c0,8.83,8.82,24.51-2.94,25.49v50h1c2,0,4.9,2,5.88,3.92A640.08,640.08,0,0,1,281.13,75.49a649.67,649.67,0,0,1,240-43.14c20.57-4.9,49-13.72,77.38-17.64V7.84A8.43,8.43,0,0,1,606.34,0h0a7.73,7.73,0,0,1,7.83,7.84v4.91c23.51-2,45.06,0,60.74,9.8,8.81,5.88,18.61,12.74,5.87,21.57a45.07,45.07,0,0,1-36.24,34.31c-18.61,2.94-36.24-5.88-46-20.59C587.73,57.84,526,64.7,525,49h-1c-80.33-2-161.63,12.74-237,42.15C212.56,119.61,143,161.76,86.2,215.68v3.92c0,3.92-3.92,7.85-7.84,7.85l10.78,927.43a45.66,45.66,0,0,1,16.65,32.35l2.94,31.37h1c5.88,0,9.79,3.92,9.79,9.8h0a8.78,8.78,0,0,1-8.81,8.83L121.46,1349c8.82,2.94,13.72,6.86,13.72,11.76,0,9.81-30.37,18.63-67.59,18.63S0,1370.56,0,1360.75c0-4.9,4.9-8.82,13.71-11.76l9.8-111.76c-4.9-1-7.84-4.9-7.84-8.83h0c0-4.9,3.92-9.8,8.82-9.8l2.94-31.37c1-12.75,7.83-25.49,17.63-32.35L56.81,140.19c-12.73-1-3.91-16.66-3.91-25.49,0-6.86,6.85-13.72,13.71-13.72Z" style="fill-rule:evenodd"/></g></g></svg>